<?xml version="1.0" standalone="no"?>
<svg xmlns="http://www.w3.org/2000/svg" viewBox="0 0 268.28248275862063 171.52248275862067" width="268.28248275862063" height="171.52248275862067"><rect fill="none" stroke="#000000" stroke-width="4" width="264.28248275862063" height="167.52248275862067" x="2" y="2"></rect><g fill="#000000" color="#000000" transform="translate(12 12) scale(1.5366926)"><svg width="96.0" height="96.0" x="0.0" y="0.0" viewBox="0 0 96 96"><path d="M41.336,19.904c0.092-0.036,0.188-0.064,0.288-0.08c1.724-0.324,3.508-1.52,4.768-3.2c0.756-1.004,2.44-1.004,3.2,0  c1.26,1.68,3.045,2.876,4.768,3.2c0.101,0.02,0.197,0.044,0.293,0.084c15.695,2.484,23.3-6.38,26.424-11.816  c-0.604,0.084-1.584,0.184-2.889,0.184c-3.947,0-9.584-0.932-14.023-5.372c-0.141-0.14-0.301-0.256-0.473-0.348  c-4.58-3.616-11.436-3.212-15.708,0.608C43.716-0.656,36.86-1.068,32.272,2.56c-0.168,0.084-0.328,0.204-0.464,0.344  c-4.44,4.436-10.08,5.372-14.024,5.372c-1.388,0-2.42-0.116-3.008-0.2C17.976,13.508,25.68,22.364,41.336,19.904z"></path><path d="M94.943,4.596c-0.563-0.424-1.307-0.52-1.959-0.252C92.943,4.36,90.04,5.54,86.188,6.74  c-1.863,4.276-9.056,17.584-26.34,17.584c-1.932,0-3.996-0.168-6.184-0.532c-0.148-0.024-0.288-0.064-0.416-0.116  c-1.889-0.428-3.716-1.432-5.252-2.872c-1.548,1.436-3.376,2.444-5.264,2.876c-0.128,0.056-0.264,0.088-0.408,0.112  C20.456,27.44,11.68,11.356,9.616,6.676C5.864,5.5,3.04,4.36,3.004,4.344c-0.656-0.26-1.4-0.172-1.96,0.252  C0.48,5.02,0.184,5.712,0.26,6.416C0.364,7.368,2.852,29.908,4.336,34.78c0.132,0.42,0.324,1.116,0.576,2.032  c10.78,39.24,24.688,59.131,41.34,59.131h3.5c16.984,0,30.872-19.799,41.271-58.847c0.285-1.064,0.5-1.852,0.641-2.32  c1.484-4.872,3.968-27.412,4.076-28.364C95.813,5.712,95.508,5.024,94.943,4.596z M57.977,39.752  c-0.353,0.244-0.752,0.36-1.148,0.36c-0.633,0-1.252-0.296-1.641-0.852l-2.319-3.312H42.564l-3.072,3.484  c-0.732,0.832-1.996,0.908-2.824,0.18c-0.828-0.732-0.908-1.996-0.18-2.824l3.668-4.164c0.38-0.432,0.928-0.68,1.5-0.68h12.252  c0.656,0,1.264,0.32,1.64,0.852l2.916,4.168C59.096,37.868,58.884,39.116,57.977,39.752z"></path></svg></g><path fill="#000000" fill-rule="nonzero" d="M7.52 30.76Q5.28 30.76 3.58 29.72Q1.88 28.68 0.94 26.90Q0 25.12 0 23L0 23Q0 20.12 1.60 18.04Q3.20 15.96 5.72 14.28L5.72 14.28Q4.60 12.72 3.80 10.76Q3 8.80 3 6.84L3 6.84Q3 4.76 3.98 3.22Q4.96 1.68 6.64 0.84Q8.32 0 10.36 0L10.36 0Q12.32 0 13.92 0.76Q15.52 1.52 16.44 2.96Q17.36 4.40 17.36 6.28L17.36 6.28Q17.36 10.52 12.20 14.20L12.20 14.20L15.84 19.84Q16.36 18.64 16.90 17.06Q17.44 15.48 17.76 14.08L17.76 14.08L22.20 15.48Q21.40 19.24 18.84 23.32L18.84 23.32Q19.76 24.24 20.78 24.76Q21.80 25.28 23.20 25.44L23.20 25.44L23.20 30.48Q21 30.48 19.74 30.12Q18.48 29.76 17.76 29.18Q17.04 28.60 15.64 27.20L15.64 27.20Q13.92 28.80 11.82 29.78Q9.72 30.76 7.52 30.76L7.52 30.76ZM10.08 11.24Q10.12 11.12 11.34 9.52Q12.56 7.92 12.56 6.20L12.56 6.20Q12.56 5.16 11.86 4.54Q11.16 3.92 10.32 3.92L10.32 3.92Q9.48 3.92 8.80 4.54Q8.12 5.16 8.12 6.24L8.12 6.24Q8.12 7 8.50 7.94Q8.88 8.88 9.64 10.36L9.64 10.36L10.08 11.24ZM8.88 25.60Q10 25.60 11.06 25.16Q12.12 24.72 12.88 24.16L12.88 24.16L7.88 17.60Q6.68 18.36 6.02 19.62Q5.36 20.88 5.36 22.16L5.36 22.16Q5.36 23.64 6.28 24.62Q7.20 25.60 8.88 25.60L8.88 25.60Z" transform="translate(174.523 12) scale(3.525)"></path><path fill="#000000" fill-rule="nonzero" d="M9.36 31.12Q4.20 31.12 2.10 26.44Q0 21.76 0 14.92L0 14.92Q0 11.24 0.96 7.84Q1.92 4.44 4.06 2.22Q6.20 0 9.48 0L9.48 0Q12 0 13.90 1.56Q15.80 3.12 16.82 5.62Q17.84 8.12 17.84 10.84L17.84 10.84L12.16 11.12Q12.16 9.32 11.56 7.02Q10.96 4.72 9.16 4.72L9.16 4.72Q7.28 4.72 6.56 7.72Q5.84 10.72 5.84 14.92L5.84 14.92Q5.84 20.12 6.64 23.26Q7.44 26.40 9.72 26.40L9.72 26.40Q11.32 26.40 12 24.50Q12.68 22.60 12.88 19.88L12.88 19.88L17.88 20.36Q17.88 23.24 16.92 25.70Q15.96 28.16 14.04 29.64Q12.12 31.12 9.36 31.12L9.36 31.12ZM30.16 31.12Q25.08 31.12 23.02 26.74Q20.96 22.36 20.96 15.40L20.96 15.40Q20.96 8.00 23.16 4Q25.36 0 30.24 0L30.24 0Q39.56 0 39.56 15.24L39.56 15.24Q39.56 22.08 37.46 26.60Q35.36 31.12 30.16 31.12L30.16 31.12ZM30.24 26.40Q32.36 26.40 33.04 23.62Q33.72 20.84 33.72 15.20L33.72 15.20Q33.72 10.68 33.06 7.70Q32.40 4.72 30.24 4.72L30.24 4.72Q28.08 4.72 27.44 7.68Q26.80 10.64 26.80 15.16L26.80 15.16Q26.80 20.84 27.46 23.62Q28.12 26.40 30.24 26.40L30.24 26.40ZM44.04 30.56L44.04 0.56L50.20 0.56Q56.12 0.56 59.04 4.32Q61.96 8.08 61.96 15.68L61.96 15.68Q61.96 19.72 60.86 23.08Q59.76 26.44 57.36 28.50Q54.96 30.56 51.24 30.56L51.24 30.56L44.04 30.56ZM49.88 25.88L50.72 25.88Q53.76 25.88 54.94 23.26Q56.12 20.64 56.12 16.80L56.12 16.80L56.12 15.44Q56.12 12.68 55.78 10.54Q55.44 8.40 54.22 6.82Q53.00 5.24 50.56 5.24L50.56 5.24L49.88 5.24L49.88 25.88ZM81.28 30.56L66.20 30.56L66.20 0.56L81.44 0.56L80.96 5.24L72.08 5.24L72.08 12.40L78.40 12.40L78.36 17.44L72.08 17.44L72.08 25.88L81.76 25.88L81.28 30.56Z" transform="translate(174.523 128.403) scale(1)"></path></svg>