<?xml version="1.0" standalone="no"?>
<!DOCTYPE svg PUBLIC "-//W3C//DTD SVG 20010904//EN"
 "http://www.w3.org/TR/2001/REC-SVG-20010904/DTD/svg10.dtd">
<svg version="1.0" xmlns="http://www.w3.org/2000/svg"
 width="700.000000pt" height="700.000000pt" viewBox="0 0 700.000000 700.000000"
 preserveAspectRatio="xMidYMid meet">
<metadata>
Created by potrace 1.14, written by Peter Selinger 2001-2017
</metadata>
<g transform="translate(0.000000,700.000000) scale(0.100000,-0.100000)"
fill="#000000" stroke="none">
<path d="M3968 6945 c-2 -2 -82 -5 -178 -9 -397 -15 -409 -16 -480 -49 -36
-16 -148 -68 -250 -114 -232 -106 -267 -123 -360 -166 -71 -33 -121 -70 -440
-330 -52 -43 -199 -162 -327 -265 l-232 -186 -60 -156 c-33 -85 -114 -296
-181 -468 l-121 -314 -1 -531 c0 -293 1 -670 2 -839 l2 -308 35 -30 c37 -32
37 -42 12 -125 -35 -118 -89 -340 -94 -390 -4 -33 -8 -71 -11 -85 -5 -31 -42
-309 -49 -370 -3 -25 -8 -55 -10 -67 -3 -14 26 -73 92 -185 53 -89 106 -181
118 -203 74 -134 208 -372 216 -385 11 -18 115 -196 321 -552 l150 -258 211
-162 c296 -227 288 -221 309 -237 10 -7 37 -16 61 -18 112 -11 702 -86 778
-98 84 -13 90 -13 175 11 49 14 186 52 304 85 118 33 242 68 275 79 33 10 92
28 132 40 l72 21 91 132 c50 73 130 189 178 258 48 69 106 153 128 185 36 51
188 345 459 884 50 98 65 138 69 185 3 33 12 114 20 180 8 66 17 140 20 165 3
25 15 119 27 210 12 91 22 201 21 245 -1 125 42 359 137 737 70 278 92 351
109 365 23 19 27 43 68 473 22 224 22 300 1 380 -9 36 -46 196 -82 355 l-65
290 -125 252 -125 253 6 157 c5 146 4 159 -13 169 -18 11 -318 180 -398 224
-22 12 -181 106 -352 209 -172 102 -320 191 -330 196 -10 6 -74 44 -142 85
-104 62 -160 86 -173 75z m-410 -1929 c34 -3 90 -8 125 -11 34 -3 78 -8 97
-10 19 -3 85 -9 145 -15 61 -6 130 -13 155 -15 25 -3 79 -7 120 -11 87 -7 50
13 495 -264 165 -103 321 -199 347 -214 25 -15 49 -35 53 -44 3 -9 42 -129 85
-267 44 -137 107 -333 140 -435 47 -146 59 -193 55 -225 -11 -76 -56 -370 -61
-395 -3 -14 -5 -51 -4 -82 0 -57 -3 -62 -129 -273 -121 -202 -204 -328 -240
-365 -9 -9 -45 -55 -81 -103 -68 -91 -74 -95 -171 -111 l-36 -6 -7 57 c-4 32
-8 69 -10 83 -2 14 -7 46 -11 72 -6 44 -10 50 -73 96 -190 139 -191 139 -272
146 -276 22 -291 21 -640 -34 l-125 -19 -160 63 c-88 35 -194 71 -235 81 -179
41 -327 76 -358 84 -18 5 -45 7 -60 5 -53 -10 -188 -43 -213 -52 -27 -11 -220
-166 -230 -185 -3 -7 -23 -78 -44 -160 l-38 -147 -36 0 c-33 0 -41 7 -102 83
-36 45 -92 127 -124 182 -74 127 -124 199 -172 251 -21 22 -46 50 -56 61 -10
11 -26 56 -37 99 -16 67 -18 104 -13 244 2 91 4 175 4 187 0 12 24 54 53 94
51 67 57 81 87 203 32 131 125 477 154 571 8 28 25 64 36 80 12 17 19 22 16
13 -21 -62 -19 -83 12 -112 l30 -29 67 29 c42 18 109 62 181 119 l113 91 88
12 c197 27 189 27 292 -12 52 -20 111 -48 131 -61 20 -13 52 -30 70 -38 58
-24 203 -181 248 -266 55 -106 59 -138 27 -193 -14 -25 -26 -55 -26 -67 0 -37
31 -161 40 -161 5 0 33 50 63 111 l54 112 2 281 2 281 -53 27 c-222 113 -387
190 -413 193 -16 2 -73 6 -125 10 -52 4 -113 9 -135 12 -47 6 -251 5 -280 -1
-11 -3 -36 -5 -57 -5 -27 -1 -50 -12 -90 -43 -47 -37 -51 -32 -10 11 7 8 21
25 30 39 11 17 93 62 257 142 132 65 249 120 260 124 17 4 112 17 465 61 25 3
88 12 140 19 52 7 102 12 110 10 8 -1 43 -5 78 -8z m-293 -2710 c66 -9 147
-21 180 -26 82 -13 222 -28 330 -35 50 -3 104 -8 120 -10 17 -2 79 -7 138 -11
59 -3 116 -7 125 -9 9 -2 41 -4 70 -4 51 -1 52 -2 35 -20 -79 -82 -262 -229
-375 -299 l-133 -84 -95 6 c-230 14 -418 31 -475 43 -62 12 -260 95 -279 117
-184 201 -242 275 -250 319 -4 25 -2 26 47 29 138 8 452 -1 562 -16z"/>
<path d="M4099 4374 c-50 -29 -95 -56 -101 -62 -11 -11 -38 -143 -36 -176 0
-12 -33 -104 -74 -206 -41 -102 -80 -214 -87 -248 -8 -42 -11 -136 -10 -270
l3 -207 61 -88 c57 -84 63 -90 129 -118 38 -16 70 -28 72 -27 1 2 -15 57 -37
123 -22 66 -60 197 -84 290 -42 159 -44 174 -34 226 23 120 75 169 188 178 59
5 66 8 69 29 3 17 16 29 49 43 24 10 46 19 48 19 2 0 6 -13 10 -29 15 -71 72
-65 67 7 -3 37 0 42 27 56 41 22 58 21 38 -2 -21 -23 -21 -41 -1 -70 39 -57
127 6 90 64 -19 28 -16 29 52 9 63 -19 95 -56 70 -81 -18 -19 -78 -33 -135
-34 -83 0 -98 -22 -25 -39 58 -14 403 -7 433 9 36 20 18 43 -56 70 -78 29
-137 60 -175 90 -34 27 -129 59 -198 66 -78 9 -78 14 -1 14 38 0 116 -13 190
-31 109 -26 132 -36 174 -70 44 -36 133 -84 142 -76 6 7 -9 37 -18 37 -4 0
-21 19 -38 43 -26 39 -40 47 -149 90 -67 26 -142 49 -173 51 -125 12 -205 8
-278 -13 -79 -22 -121 -19 -121 8 0 33 27 51 160 107 129 55 139 57 225 58 83
1 172 -5 286 -20 41 -5 53 -15 172 -137 l128 -132 -6 105 c-4 58 -10 109 -13
115 -3 5 -48 63 -99 127 -106 131 -82 119 -278 139 -60 6 -212 12 -337 13
l-228 2 -91 -52z m195 -409 c-49 -17 -100 -37 -112 -44 -34 -18 -134 -52 -140
-47 -7 8 81 59 153 89 68 28 161 48 179 39 5 -3 -31 -19 -80 -37z"/>
<path d="M2478 4209 c-138 -11 -228 -65 -288 -171 -28 -50 -7 -51 46 -4 113
101 207 132 389 130 208 -2 250 -18 399 -151 33 -29 63 -53 68 -53 29 0 -23
59 -139 157 -64 55 -109 70 -253 88 -89 10 -130 11 -222 4z"/>
<path d="M2493 4083 c-90 -32 -196 -84 -220 -109 -12 -12 -11 -14 9 -14 13 0
73 -14 133 -31 112 -32 204 -46 285 -44 40 1 201 20 240 29 8 1 32 6 53 11 20
4 40 11 42 16 5 8 -24 6 -147 -10 l-58 -8 8 26 c4 14 6 43 5 64 l-1 38 54 -31
c60 -34 66 -28 28 29 -35 53 -107 74 -244 69 -79 -2 -115 -9 -187 -35z m163
-30 c-29 -58 28 -111 78 -72 38 30 34 72 -9 97 -18 11 -16 11 10 6 58 -13 75
-23 77 -46 2 -39 -2 -62 -16 -83 -13 -20 -19 -21 -92 -13 -43 5 -88 15 -100
23 -26 17 -45 67 -33 86 7 12 89 40 97 33 2 -1 -3 -15 -12 -31z m-123 -10 c3
-5 8 -23 12 -42 l7 -34 -42 7 c-23 4 -51 11 -62 17 -19 10 -19 12 -2 30 9 10
19 17 23 15 3 -2 15 0 26 5 26 10 33 10 38 2z"/>
<path d="M2769 3102 c-173 -118 -317 -237 -304 -251 3 -2 42 24 86 59 45 35
124 85 175 112 79 42 97 56 118 93 13 25 21 45 17 45 -4 0 -45 -26 -92 -58z"/>
<path d="M3770 2927 c0 -25 -79 -81 -150 -105 l-65 -22 -84 25 c-46 14 -87 23
-89 20 -11 -11 41 -104 62 -109 69 -19 171 9 265 73 52 36 60 46 66 81 4 23 4
44 1 47 -3 4 -6 -1 -6 -10z"/>
<path d="M4220 2882 c0 -27 6 -32 83 -66 71 -31 87 -43 116 -86 43 -63 74 -96
134 -144 73 -59 58 -23 -42 104 -87 110 -93 115 -190 168 l-101 54 0 -30z"/>
<path d="M3027 2883 c-9 -8 42 -63 58 -63 6 0 37 -14 69 -30 32 -17 62 -29 67
-28 4 2 -7 26 -24 55 -27 43 -39 53 -74 62 -48 13 -87 14 -96 4z"/>
<path d="M3765 2764 c-33 -14 -85 -45 -115 -67 l-55 -42 35 -3 c19 -2 53 1 75
8 78 22 235 83 235 91 0 14 -57 39 -87 39 -15 -1 -55 -12 -88 -26z"/>
</g>
</svg>
