<?xml version="1.0" standalone="no"?>
<!DOCTYPE svg PUBLIC "-//W3C//DTD SVG 20010904//EN"
 "http://www.w3.org/TR/2001/REC-SVG-20010904/DTD/svg10.dtd">
<svg version="1.0" xmlns="http://www.w3.org/2000/svg"
 width="1500.000000pt" height="1500.000000pt" viewBox="0 0 1500.000000 1500.000000"
 preserveAspectRatio="xMidYMid meet">
<metadata>
Created by potrace 1.14, written by Peter Selinger 2001-2017
</metadata>
<g transform="translate(0.000000,1500.000000) scale(0.100000,-0.100000)"
fill="#000000" stroke="none">
<path d="M6 12281 c-3 -6 0 -9561 3 -9572 0 -3 3373 -5 7494 -5 l7492 1 0
4790 0 4790 -7493 1 c-4121 0 -7494 -2 -7496 -5z m14749 -220 c20 -1 20 -8 20
-4566 0 -2511 -2 -4565 -5 -4566 -7 -1 -14487 -1 -14520 0 l-25 1 1 4554 c0
2504 3 4560 6 4567 5 12 1096 14 7254 12 3987 -1 7258 -2 7269 -2z"/>
<path d="M4015 11613 c-82 -7 -189 -29 -270 -55 -88 -28 -236 -104 -275 -140
-10 -10 -23 -18 -28 -18 -5 0 -19 -12 -33 -26 -44 -47 -173 -150 -254 -203
-159 -104 -392 -196 -575 -227 -14 -2 -36 -7 -50 -9 -25 -5 -96 -14 -160 -21
-98 -10 -379 -3 -417 11 -7 2 -13 3 -13 1 0 -4 46 -75 102 -160 7 -11 48 -62
90 -115 299 -374 673 -613 1123 -720 246 -58 580 -72 853 -36 20 2 55 7 77 9
161 20 298 96 426 235 80 89 119 113 184 113 44 0 118 -31 132 -56 34 -59 175
-181 256 -222 46 -24 140 -60 160 -62 4 0 26 -3 50 -7 179 -24 250 -29 422
-29 94 0 197 3 230 7 96 11 128 15 163 21 17 3 44 8 60 11 203 35 486 148 678
272 111 72 91 56 214 161 161 137 276 268 397 449 84 125 84 123 15 118 -74
-6 -320 -6 -352 -1 -14 3 -51 7 -83 11 -341 37 -682 190 -924 415 -133 125
-346 231 -511 255 -15 2 -45 7 -67 10 -237 35 -556 -44 -745 -184 -30 -23 -65
-48 -76 -56 -20 -15 -26 -13 -93 38 -78 59 -190 118 -291 153 -111 38 -308 65
-415 57z"/>
<path d="M11668 11615 c-1 -1 -33 -5 -69 -9 -115 -10 -271 -46 -374 -84 -69
-26 -159 -65 -165 -71 -3 -4 -25 -17 -50 -30 -102 -54 -191 -121 -286 -216
-143 -142 -240 -293 -303 -472 -21 -60 -26 -79 -37 -133 -2 -14 -7 -31 -9 -38
-20 -57 -28 -404 -12 -532 29 -231 115 -496 249 -767 67 -134 160 -297 213
-373 64 -91 67 -79 -48 -161 -189 -134 -289 -220 -462 -393 -194 -196 -317
-358 -399 -529 -43 -89 -96 -234 -112 -307 -4 -19 -9 -39 -10 -45 -46 -204
-47 -491 -3 -709 93 -465 373 -839 777 -1041 87 -44 243 -100 306 -110 17 -3
45 -8 61 -12 67 -14 213 -27 300 -27 73 1 236 11 270 18 11 2 40 7 65 11 65
11 67 11 160 35 341 87 758 321 1067 598 l42 38 133 -129 c229 -222 335 -306
461 -365 55 -26 186 -74 207 -77 3 0 10 -3 15 -6 6 -4 33 -10 60 -14 28 -5 55
-9 60 -11 33 -8 76 -15 120 -19 28 -3 68 -8 90 -10 22 -3 109 -8 193 -11 l152
-6 0 501 0 501 -32 0 c-18 0 -51 5 -73 10 -22 5 -53 11 -70 14 -119 22 -283
88 -400 161 -86 55 -208 150 -257 202 l-27 28 41 65 c95 151 269 477 346 650
105 236 226 589 258 755 2 11 6 32 9 46 7 31 54 14 -635 229 -91 28 -178 56
-193 62 -16 6 -31 7 -36 2 -4 -5 -23 -67 -41 -139 -39 -151 -89 -314 -155
-505 -54 -153 -173 -462 -183 -471 -4 -4 -78 104 -165 240 -137 214 -330 513
-504 780 l-52 80 71 53 c149 110 242 190 383 332 136 137 158 161 236 266 142
190 243 398 289 597 28 117 34 177 35 313 0 230 -34 381 -127 563 -92 178
-218 320 -390 433 -181 121 -356 185 -623 229 -41 7 -360 16 -367 10z m247
-789 c95 -28 182 -91 247 -180 110 -151 86 -465 -55 -726 -42 -76 -71 -118
-228 -328 l-138 -184 -113 229 c-63 125 -127 257 -142 293 -16 36 -34 79 -42
95 -23 52 -64 183 -75 238 -24 127 -5 277 48 367 57 96 189 191 288 206 22 3
41 7 43 8 8 8 117 -4 167 -18z m-489 -2829 c60 -78 153 -200 207 -272 55 -71
138 -181 186 -244 69 -91 154 -202 218 -286 5 -6 28 -37 53 -70 25 -33 47 -62
50 -65 30 -30 150 -202 146 -209 -11 -18 -198 -123 -294 -166 -167 -75 -290
-105 -457 -110 -373 -11 -628 175 -706 514 -14 62 -17 206 -6 296 23 193 133
428 273 584 55 61 203 183 215 176 4 -3 56 -69 115 -148z"/>
<path d="M805 11245 c-77 -28 -122 -110 -111 -201 3 -24 8 -65 11 -91 6 -49
13 -115 20 -168 2 -16 9 -75 15 -130 6 -55 13 -113 15 -130 2 -16 7 -55 10
-85 4 -30 8 -66 10 -80 2 -14 7 -54 10 -90 4 -36 9 -74 11 -85 2 -11 7 -45 10
-75 3 -30 7 -66 9 -80 8 -50 15 -96 20 -145 3 -27 10 -77 15 -110 5 -33 11
-85 15 -115 3 -30 8 -66 11 -80 2 -14 6 -41 9 -60 4 -30 12 -90 31 -215 2 -16
7 -48 9 -70 3 -22 7 -47 10 -55 2 -8 7 -35 10 -60 3 -25 10 -67 15 -95 5 -27
12 -66 15 -85 11 -68 57 -285 62 -293 6 -10 31 -95 43 -147 19 -81 163 -576
242 -825 618 -1975 1339 -3271 2161 -3885 263 -196 556 -332 816 -380 31 -5
67 -12 81 -15 60 -12 220 -19 410 -19 187 0 416 10 430 19 3 2 26 6 50 10 25
3 79 15 120 26 41 12 82 22 90 24 102 25 348 138 475 218 89 56 276 194 344
254 79 69 235 226 315 318 44 50 91 104 106 120 15 17 31 38 36 47 5 8 21 31
37 49 55 68 154 207 233 329 87 132 194 307 194 316 0 2 12 23 27 47 68 105
300 569 393 782 28 66 61 140 72 165 11 25 60 144 108 265 258 644 485 1358
735 2305 28 106 82 387 100 525 3 22 10 63 15 90 8 44 31 202 46 320 3 22 7
51 9 65 2 14 7 49 10 79 4 30 8 62 10 71 2 9 6 41 10 71 3 30 15 122 26 204
19 149 24 193 35 290 3 28 7 57 9 65 2 8 6 46 10 83 3 37 8 76 9 85 2 9 7 49
11 87 5 39 9 77 10 85 1 8 5 48 9 88 4 41 11 96 15 124 20 126 -13 206 -102
243 -50 20 -100 11 -262 -50 -82 -32 -217 -80 -300 -107 l-150 -50 -39 -82
c-116 -245 -308 -517 -504 -715 -147 -148 -167 -165 -293 -258 -337 -249 -688
-382 -1159 -441 -117 -14 -642 -5 -670 13 -3 2 -34 6 -70 10 -35 3 -71 10 -79
14 -9 5 -38 14 -66 20 -96 24 -278 121 -350 188 -46 42 -52 45 -66 31 -137
-129 -356 -232 -539 -253 -30 -3 -62 -8 -70 -10 -45 -12 -199 -20 -385 -20
-223 0 -322 7 -475 34 -754 135 -1380 620 -1758 1363 l-57 111 -183 63 c-101
35 -233 82 -292 104 -130 49 -163 55 -215 35z m4570 -2388 c17 -8 40 -26 51
-39 28 -30 261 -364 280 -401 36 -67 6 -176 -59 -215 -93 -58 -187 -28 -264
84 -15 23 -59 87 -98 142 l-70 102 -445 -1 -445 0 -54 -62 c-216 -248 -241
-274 -288 -286 -77 -21 -165 15 -199 81 -23 45 -22 128 2 166 17 27 99 124
149 178 11 11 49 54 84 95 107 123 146 157 192 166 22 4 287 8 588 7 473 -1
550 -3 576 -17z"/>
<path d="M10170 5096 c-157 -44 -283 -187 -350 -397 -106 -331 -73 -823 73
-1103 78 -148 226 -231 402 -225 218 8 373 148 435 393 24 96 33 206 16 207
-6 0 -20 2 -30 4 -24 5 -170 18 -210 19 -19 1 -30 -4 -31 -14 -1 -8 -5 -44 -9
-80 -9 -80 -47 -195 -77 -226 -40 -43 -115 -52 -164 -20 -53 35 -95 121 -111
226 -3 19 -7 40 -9 47 -9 26 -19 206 -19 338 0 279 29 448 91 532 42 57 122
64 177 15 37 -33 71 -150 80 -272 l3 -45 154 3 c85 2 155 5 158 7 8 9 1 106
-14 169 -44 190 -143 329 -282 398 -56 27 -77 32 -152 34 -47 1 -106 -4 -131
-10z"/>
<path d="M11325 5096 c-188 -46 -304 -195 -361 -461 -23 -107 -29 -193 -29
-395 0 -198 6 -267 30 -376 9 -38 18 -79 20 -92 10 -42 65 -172 91 -213 89
-142 254 -209 444 -181 245 35 371 211 431 602 23 149 18 487 -10 630 -43 217
-142 384 -267 448 -92 47 -246 64 -349 38z m192 -269 c35 -19 58 -50 77 -109
62 -193 66 -715 6 -938 -17 -65 -47 -108 -89 -129 -38 -20 -95 -20 -129 -2
-47 25 -85 98 -97 186 -3 22 -8 46 -10 52 -9 25 -18 231 -18 379 0 197 14 335
42 441 32 117 124 168 218 120z"/>
<path d="M12220 4241 l0 -840 228 1 c262 0 321 8 417 53 150 72 257 219 314
433 30 113 36 171 36 362 0 163 -3 198 -25 315 -36 188 -145 355 -280 432
-116 65 -169 75 -442 80 l-248 4 0 -840z m485 550 c106 -47 167 -171 182 -366
32 -431 -32 -684 -191 -745 -33 -12 -146 -21 -147 -12 -3 22 -4 1120 -1 1134
3 14 13 16 57 13 30 -2 75 -13 100 -24z"/>
<path d="M13460 4240 l0 -839 420 0 c318 0 420 3 421 12 0 7 2 20 4 30 2 10 6
48 10 85 3 37 8 82 11 100 3 17 2 32 -3 33 -4 1 -123 2 -263 4 -140 1 -259 3
-265 4 -8 1 -12 341 -6 451 1 13 26 15 176 15 l175 0 0 141 0 142 -170 -1
c-94 0 -173 2 -175 5 -5 4 -8 178 -6 329 l1 66 241 0 c132 0 244 4 249 9 4 5
11 45 14 89 4 44 9 99 12 122 l5 41 -425 0 -426 0 0 -838z"/>
</g>
</svg>
